<?xml version="1.0" encoding="UTF-8"?>
<svg version="1.1" xmlns="http://www.w3.org/2000/svg" width="516" height="532">
<path d="M0 0 C3.04887823 2.75735203 6.03903655 5.56325946 9.00390625 8.41015625 C9.56754883 8.94656738 10.13119141 9.48297852 10.71191406 10.03564453 C19.30043669 18.24714477 27.05263543 26.76759127 34.00390625 36.41015625 C34.48037598 37.06935059 34.9568457 37.72854492 35.44775391 38.40771484 C69.18644087 85.68634274 83.61844718 145.57511937 74.04296875 203.0703125 C67.25700234 239.34083078 53.08423487 273.44278435 30.00390625 302.41015625 C29.22015625 303.39886719 28.43640625 304.38757813 27.62890625 305.40625 C-8.83088029 350.39389477 -61.35669287 378.87851631 -118.82910156 385.39672852 C-177.39197199 391.31998847 -235.49563778 374.69653278 -281.40673828 337.72216797 C-286.12897177 333.82396785 -290.58220473 329.64841551 -294.99609375 325.41015625 C-295.55973633 324.87374512 -296.12337891 324.33733398 -296.70410156 323.78466797 C-305.29262419 315.57316773 -313.04482293 307.05272123 -319.99609375 297.41015625 C-320.71079834 296.42136475 -320.71079834 296.42136475 -321.43994141 295.41259766 C-342.59340033 265.76987581 -356.38947323 231.57424043 -360.99609375 195.41015625 C-361.09035645 194.71237061 -361.18461914 194.01458496 -361.28173828 193.2956543 C-367.93625957 137.32743989 -352.84888913 78.98701399 -318.30859375 34.3125 C-317.54546875 33.35472656 -316.78234375 32.39695312 -315.99609375 31.41015625 C-315.21234375 30.42144531 -314.42859375 29.43273437 -313.62109375 28.4140625 C-277.16130721 -16.57358227 -224.63549463 -45.05820381 -167.16308594 -51.57641602 C-106.79338636 -57.68242519 -46.0805487 -39.83233871 0 0 Z " fill="#00AEEF" transform="translate(401.99609375,102.58984375)"/>
<path d="M0 0 C-0.33 1.32 -0.66 2.64 -1 4 C-1.79019531 3.53851563 -2.58039063 3.07703125 -3.39453125 2.6015625 C-64.15315933 -32.53428414 -129.45743729 -45.37903247 -198.25 -27.69140625 C-219.18731515 -21.94711909 -239.60282234 -12.79421476 -258.328125 -1.84765625 C-260 -1 -260 -1 -262 -1 C-262 -0.34 -262 0.32 -262 1 C-262.99 1 -263.98 1 -265 1 C-265 1.66 -265 2.32 -265 3 C-267.30078125 4.69140625 -267.30078125 4.69140625 -270.3125 6.5625 C-271.79169922 7.49255859 -271.79169922 7.49255859 -273.30078125 8.44140625 C-276 10 -276 10 -279 11 C-279 11.66 -279 12.32 -279 13 C-280.32 13.33 -281.64 13.66 -283 14 C-283 14.66 -283 15.32 -283 16 C-284.86328125 17.69140625 -284.86328125 17.69140625 -287.3125 19.5625 C-288.51326172 20.49255859 -288.51326172 20.49255859 -289.73828125 21.44140625 C-292 23 -292 23 -295 24 C-295 24.66 -295 25.32 -295 26 C-295.66 26 -296.32 26 -297 26 C-297 26.66 -297 27.32 -297 28 C-298.5390625 29.48046875 -298.5390625 29.48046875 -300.625 31.1875 C-304.08787267 34.1100663 -306.97510908 37.15830902 -309.7734375 40.71484375 C-310.17820312 41.13894531 -310.58296875 41.56304687 -311 42 C-311.66 42 -312.32 42 -313 42 C-313.2371875 42.55042969 -313.474375 43.10085937 -313.71875 43.66796875 C-315.31487749 46.57311543 -317.31785925 48.81615861 -319.5 51.3125 C-330.21320312 63.86477035 -345.57796002 82.82635842 -349 99 C-349.66 99 -350.32 99 -351 99 C-351.11730469 99.70898438 -351.23460937 100.41796875 -351.35546875 101.1484375 C-352.0406469 104.17983172 -353.0727288 106.77698071 -354.3125 109.625 C-358.55180805 119.63074435 -361.76452265 129.34761172 -364 140 C-364.66 140 -365.32 140 -366 140 C-366.495 146.435 -366.495 146.435 -367 153 C-367.66 153 -368.32 153 -369 153 C-368.98839844 153.71027344 -368.97679687 154.42054688 -368.96484375 155.15234375 C-368.95130859 156.53099609 -368.95130859 156.53099609 -368.9375 157.9375 C-368.92589844 158.85402344 -368.91429687 159.77054688 -368.90234375 160.71484375 C-369 163 -369 163 -370 164 C-371.20610111 171.04745602 -371.14482358 178.05351788 -371.1328125 185.1875 C-371.13376923 186.44457764 -371.13472595 187.70165527 -371.13571167 188.99682617 C-371.13639005 191.64603165 -371.13506794 194.29514388 -371.13037109 196.94433594 C-371.12467444 200.31980593 -371.12795907 203.69519637 -371.13394356 207.07066345 C-371.13845026 210.31794505 -371.13528391 213.56521736 -371.1328125 216.8125 C-371.13483673 218.01479248 -371.13686096 219.21708496 -371.13894653 220.45581055 C-371.82503933 230.27493594 -371.82503933 230.27493594 -369 239 C-368.92794489 240.68608966 -368.91613932 242.37500659 -368.9375 244.0625 C-368.95103516 245.44115234 -368.95103516 245.44115234 -368.96484375 246.84765625 C-368.97644531 247.55792969 -368.98804688 248.26820313 -369 249 C-368.34 249 -367.68 249 -367 249 C-366.67 253.29 -366.34 257.58 -366 262 C-365.34 262 -364.68 262 -364 262 C-363.49595192 264.10320063 -362.99689492 266.20759791 -362.5 268.3125 C-362.2215625 269.48425781 -361.943125 270.65601563 -361.65625 271.86328125 C-361 275 -361 275 -361 278 C-360.34 278 -359.68 278 -359 278 C-358.68869141 279.14662109 -358.68869141 279.14662109 -358.37109375 280.31640625 C-355.77482215 289.34361001 -352.21277302 297.62791555 -348 306 C-347.52771973 306.94045166 -347.52771973 306.94045166 -347.04589844 307.89990234 C-338.25122459 325.2432139 -327.44574692 340.99750074 -314.62939453 355.63696289 C-312.76742259 357.78468969 -311.12288687 359.74827326 -309.87109375 362.3125 C-309.05851541 364.36824027 -309.05851541 364.36824027 -306 365 C-306 365.66 -306 366.32 -306 367 C-305.34 367 -304.68 367 -304 367 C-304 367.66 -304 368.32 -304 369 C-303.01 369.33 -302.02 369.66 -301 370 C-301 370.66 -301 371.32 -301 372 C-300.43796875 372.23976563 -299.8759375 372.47953125 -299.296875 372.7265625 C-296.51099828 374.2711132 -294.54949163 376.16834499 -292.25 378.375 C-281.56351613 388.23506245 -267.98554175 400.33815275 -254 405 C-254 405.66 -254 406.32 -254 407 C-249.545 408.485 -249.545 408.485 -245 410 C-245 410.66 -245 411.32 -245 412 C-244.175 412.0825 -243.35 412.165 -242.5 412.25 C-239.08262452 412.98229475 -236.46767139 414.20635315 -233.39453125 415.828125 C-229.45456676 417.75632948 -225.3460473 419.22939911 -221.2421875 420.76953125 C-218.38428969 421.85415512 -215.56885169 423.00639236 -212.75 424.1875 C-208.85748537 425.76228569 -205.02883265 426.80565319 -200.91015625 427.60546875 C-198.29205878 428.14622099 -195.84526195 429.05626838 -193.3359375 429.96875 C-189.47194625 431.1632391 -185.6121295 431.88157605 -181.625 432.5 C-180.80845947 432.62673096 -179.99191895 432.75346191 -179.15063477 432.8840332 C-151.42249304 436.98315649 -123.05684564 437.61466851 -95.42578125 432.375 C-91.58941996 431.78193932 -87.87365259 431.87087825 -84 432 C-84 431.34 -84 430.68 -84 430 C-82.948125 429.87625 -81.89625 429.7525 -80.8125 429.625 C-77.13854565 429.17182759 -77.13854565 429.17182759 -74.4375 427.9375 C-71.5087509 426.81105804 -69.11110233 426.85529757 -66 427 C-66 426.34 -66 425.68 -66 425 C-56.58997722 421.55580866 -56.58997722 421.55580866 -52 422 C-52 421.34 -52 420.68 -52 420 C-50.35 420 -48.7 420 -47 420 C-47 419.34 -47 418.68 -47 418 C-40.5 415 -40.5 415 -36 415 C-36 414.34 -36 413.68 -36 413 C-34.06629769 411.99267601 -32.12789694 410.99436712 -30.1875 410 C-29.10855469 409.443125 -28.02960938 408.88625 -26.91796875 408.3125 C-24 407 -24 407 -21 407 C-21 406.34 -21 405.68 -21 405 C-19.88625 404.484375 -18.7725 403.96875 -17.625 403.4375 C-13.21401051 401.25159224 -9.34515916 398.50901922 -5.39453125 395.5859375 C-2.99639748 393.99761399 -0.70046939 392.96890731 2 392 C2 391.34 2 390.68 2 390 C4.5614657 387.70351351 5.47967572 387 9 387 C9.33 386.01 9.66 385.02 10 384 C11.77734375 382.17578125 11.77734375 382.17578125 13.9375 380.3125 C15.00291016 379.37857422 15.00291016 379.37857422 16.08984375 378.42578125 C18 377 18 377 20 377 C20 376.34 20 375.68 20 375 C21.50390625 373.51953125 21.50390625 373.51953125 23.5625 371.8125 C31.29329761 365.20741503 37.67534084 357.96052653 44 350 C45.15822266 348.58460938 45.15822266 348.58460938 46.33984375 347.140625 C78.69436694 306.65814217 95.4955969 255.71048458 95.375 204.125 C95.37468277 202.85890396 95.37468277 202.85890396 95.37435913 201.56723022 C95.33675662 186.42018864 94.08884637 171.86475821 91 157 C90.81276367 156.09314453 90.62552734 155.18628906 90.43261719 154.25195312 C84.93476692 128.55733684 74.95452323 103.94289264 61.02416992 81.68237305 C60.1075566 80.17667999 59.27959478 78.6178485 58.46484375 77.0546875 C57.21612042 74.83789334 57.21612042 74.83789334 55.08984375 74.50390625 C54.37957031 74.52324219 53.66929687 74.54257813 52.9375 74.5625 C46.33817507 74.16417207 40.76482083 70.99258639 36.29296875 66.15234375 C31.74562757 59.98001609 31.28711558 54.43436605 32 47 C33.74927629 40.82484396 37.68176789 36.4717773 43 33 C48.80582262 30.22990163 55.08088762 29.87929492 61.28125 31.65234375 C67.26531018 34.33366302 71.07090101 38.75560624 74.375 44.3125 C75.56611941 49.43431344 75.56540027 54.82583196 74.2421875 59.9140625 C73.91659829 64.06269925 75.60133785 66.22093754 77.9375 69.4375 C78.7831224 70.67925495 79.62414869 71.92415023 80.4609375 73.171875 C80.88858398 73.80673828 81.31623047 74.44160156 81.75683594 75.09570312 C97.78653094 99.65022415 106.44730539 129.51812497 112 158 C112.19722656 158.96397705 112.39445312 159.9279541 112.59765625 160.92114258 C114.62757956 172.52342299 114.3721285 184.29406906 114.37060547 196.03588867 C114.37494582 199.76593849 114.41126228 203.49477043 114.44921875 207.22460938 C114.52463385 223.17919626 113.18365293 238.3627784 110 254 C109.8574176 254.70033356 109.71483521 255.40066711 109.56793213 256.1222229 C108.79686237 259.78681693 107.88700752 263.39515085 106.875 267 C106.58061035 268.06210693 106.2862207 269.12421387 105.98291016 270.21850586 C98.36924312 296.69055034 86.34320036 322.7563892 70 345 C69.60248535 345.54479004 69.2049707 346.08958008 68.79541016 346.65087891 C59.99506191 358.61722769 50.32860784 369.82737362 39.875 380.375 C38.89720581 381.36669189 38.89720581 381.36669189 37.8996582 382.37841797 C36.98639771 383.28551514 36.98639771 383.28551514 36.0546875 384.2109375 C35.51312012 384.75024902 34.97155273 385.28956055 34.41357422 385.84521484 C33 387 33 387 31 387 C31 387.66 31 388.32 31 389 C29.05970914 390.71581981 27.11502031 392.30216118 25.0625 393.875 C24.43931885 394.35751221 23.8161377 394.84002441 23.17407227 395.3371582 C-30.46749502 436.49655449 -95.78757893 457.81197468 -163.6484375 449.74609375 C-199.44826293 444.9678692 -231.41700077 433.17213754 -263 416 C-263 415.34 -263 414.68 -263 414 C-263.54527344 413.90847656 -264.09054687 413.81695312 -264.65234375 413.72265625 C-269.95907704 412.08913602 -274.48331292 408.14274874 -279 405 C-280.06605469 404.26136719 -281.13210938 403.52273438 -282.23046875 402.76171875 C-287.9859107 398.6889804 -287.9859107 398.6889804 -290 397 C-290 396.34 -290 395.68 -290 395 C-291.0828125 394.6596875 -291.0828125 394.6596875 -292.1875 394.3125 C-295.56582327 392.73594914 -297.43796738 390.69013425 -300 388 C-301.65893182 386.65705519 -303.32476605 385.32255312 -305 384 C-306.8125 382.375 -306.8125 382.375 -308 381 C-308 380.34 -308 379.68 -308 379 C-308.66 379 -309.32 379 -310 379 C-311.625 377.625 -311.625 377.625 -313 376 C-313 375.34 -313 374.68 -313 374 C-313.66 374 -314.32 374 -315 374 C-316.625 372.625 -316.625 372.625 -318 371 C-318 370.34 -318 369.68 -318 369 C-318.66 369 -319.32 369 -320 369 C-321.5859375 367.20703125 -321.5859375 367.20703125 -323.375 364.8125 C-325.35603259 362.18215193 -327.3338294 359.59769278 -329.4375 357.0625 C-331 355 -331 355 -331 353 C-331.66 353 -332.32 353 -333 353 C-336 348.61538462 -336 348.61538462 -336 346 C-336.66 346 -337.32 346 -338 346 C-341 341.61538462 -341 341.61538462 -341 339 C-341.66 339 -342.32 339 -343 339 C-346 333.25 -346 333.25 -346 331 C-346.66 331 -347.32 331 -348 331 C-348.89348992 329.21302015 -349.78603957 327.42556781 -350.67578125 325.63671875 C-351.61925613 323.75811833 -352.5765 321.88640633 -353.54296875 320.01953125 C-369.55419888 288.76648937 -380.98694551 253.87542878 -381.23828125 218.50390625 C-381.246353 217.39812729 -381.25442474 216.29234833 -381.26274109 215.15306091 C-381.27653284 212.81063375 -381.2872768 210.4681869 -381.29516602 208.12573242 C-381.30657424 205.78061842 -381.32684371 203.435528 -381.35668945 201.09057617 C-381.66872463 176.49906674 -378.29872486 153.48035971 -371 130 C-370.74379883 129.17226074 -370.48759766 128.34452148 -370.22363281 127.49169922 C-365.08448195 111.21987087 -358.77146958 94.0726808 -349 80 C-348.505 78.515 -348.505 78.515 -348 77 C-347.34 77 -346.68 77 -346 77 C-345.731875 76.28457031 -345.46375 75.56914062 -345.1875 74.83203125 C-343.98268693 71.95871061 -342.58762888 69.36662374 -341 66.6875 C-340.2265625 65.36298828 -340.2265625 65.36298828 -339.4375 64.01171875 C-338.963125 63.34785156 -338.48875 62.68398437 -338 62 C-337.34 62 -336.68 62 -336 62 C-335.690625 61.21625 -335.38125 60.4325 -335.0625 59.625 C-334 57 -334 57 -333 55 C-332.34 55 -331.68 55 -331 55 C-330.690625 54.38125 -330.38125 53.7625 -330.0625 53.125 C-329.375 51.75 -328.6875 50.375 -328 49 C-327.34 49 -326.68 49 -326 49 C-325.690625 48.38125 -325.38125 47.7625 -325.0625 47.125 C-324.375 45.75 -323.6875 44.375 -323 43 C-322.34 43 -321.68 43 -321 43 C-320.62875 42.1646875 -320.62875 42.1646875 -320.25 41.3125 C-318.77075182 38.57589087 -317.06532561 36.32349131 -315 34 C-314.34 34 -313.68 34 -313 34 C-313 33.34 -313 32.68 -313 32 C-311.625 30.375 -311.625 30.375 -310 29 C-309.34 29 -308.68 29 -308 29 C-308 28.34 -308 27.68 -308 27 C-306.53125 25.51953125 -306.53125 25.51953125 -304.5 23.8125 C-300.82607068 20.70077339 -297.2313696 17.51847245 -293.6640625 14.28515625 C-292 13 -292 13 -290 13 C-290 12.34 -290 11.68 -290 11 C-288.1640625 9.51953125 -288.1640625 9.51953125 -285.625 7.8125 C-284.70332031 7.18730469 -283.78164063 6.56210938 -282.83203125 5.91796875 C-281.89746094 5.28503906 -280.96289062 4.65210938 -280 4 C-278.4367652 2.87602126 -276.87425288 1.75103695 -275.3125 0.625 C-194.23154669 -55.63270761 -83.76400512 -55.19966346 0 0 Z " fill="#0E73BC" transform="translate(398,65)"/>
<path d="M0 0 C1.19302734 0.36738281 1.19302734 0.36738281 2.41015625 0.7421875 C16.14555032 5.54002221 24.06127292 15.67900842 30.25 28.375 C39.49933768 49.65339652 38.88400858 74.43351148 37.1875 97.1875 C37.08260254 98.68506836 37.08260254 98.68506836 36.97558594 100.21289062 C35.70182708 115.56904322 30.83845127 132.64861791 20 144 C18.99839844 145.06154297 18.99839844 145.06154297 17.9765625 146.14453125 C7.73099537 156.11269133 -4.28934002 158.27640739 -18.03540039 158.24438477 C-31.48321962 158.03628157 -41.88165782 153.89966281 -51.8125 144.6875 C-55.64373802 140.57280523 -58.40828734 135.96804754 -61 131 C-61.68255859 129.69289063 -61.68255859 129.69289063 -62.37890625 128.359375 C-69.2562645 113.66030483 -69.51973583 96.8101082 -69.44604492 80.86645508 C-69.4375141 78.06712581 -69.466486 75.26983426 -69.49804688 72.47070312 C-69.57946075 51.28071338 -66.62532075 28.38648503 -52 12 C-37.8609683 -1.35228113 -18.81644206 -6.18915107 0 0 Z " fill="#FCFEFE" transform="translate(398,189)"/>
<path d="M0 0 C3.37913187 1.30957795 6.62652588 2.75399367 9.86328125 4.3828125 C10.74951172 4.82753906 11.63574219 5.27226562 12.54882812 5.73046875 C13.46083984 6.19066406 14.37285156 6.65085938 15.3125 7.125 C16.70952148 7.82689453 16.70952148 7.82689453 18.13476562 8.54296875 C20.42409489 9.69350346 22.71246641 10.84590035 25 12 C19.26788545 24.4051065 13.17437977 36.57437782 6.796875 48.66015625 C4.12171058 53.73608541 1.54333086 58.85692815 -1 64 C0.093125 63.9175 1.18625 63.835 2.3125 63.75 C13.0246382 63.78778532 24.07323866 70.09512375 31.75 77.25 C41.78457173 87.97089857 45.46483593 100.68417075 45.2109375 115.078125 C44.49513632 128.38672479 38.8131521 139.95613898 29 149 C16.68819064 158.30391663 4.22926683 161.04412211 -11 160 C-23.98628039 157.60741116 -34.82568444 150.40599589 -42.62109375 139.79296875 C-49.40964465 129.31388394 -52.70868589 117.46335591 -51 105 C-48.67880704 95.99241351 -45.2753721 87.84965264 -41.0546875 79.5859375 C-40.48477081 78.45080719 -39.91485413 77.31567688 -39.32766724 76.14614868 C-37.82303865 73.15447704 -36.3097487 70.16753456 -34.79205322 67.18249512 C-33.28018693 64.20263432 -31.78165078 61.21611889 -30.28125 58.23046875 C-23.9808719 45.71815998 -17.57756554 33.26481478 -11.00506592 20.89331055 C-9.6082493 18.26203274 -8.22186413 15.6253077 -6.8359375 12.98828125 C-4.55729167 8.65885417 -2.27864583 4.32942708 0 0 Z " fill="#FCFEFE" transform="translate(265,187)"/>
<path d="M0 0 C8.80733427 8.22535183 12.85034851 17.83720278 13.3984375 29.65625 C13.19427577 40.03246976 9.13009066 48.12235572 2.03125 55.55859375 C-0.80943464 58.09377079 -3.61090098 59.76358927 -7.0390625 61.40625 C-6.1934375 61.81875 -5.3478125 62.23125 -4.4765625 62.65625 C6.88484908 68.44024135 15.279993 75.1535669 19.70703125 87.484375 C23.30775488 100.89396647 20.86763812 113.72511446 14.2109375 125.65625 C6.7925598 137.18979742 -4.64304668 145.22882689 -18.0390625 148.40625 C-35.87119625 151.73088511 -52.19879872 148.89159914 -67.2734375 138.9296875 C-77.11782674 131.13258275 -82.85823005 118.42909472 -84.3515625 106.21875 C-84.5784375 103.970625 -84.8053125 101.7225 -85.0390625 99.40625 C-75.4690625 99.40625 -65.8990625 99.40625 -56.0390625 99.40625 C-54.3890625 103.69625 -52.7390625 107.98625 -51.0390625 112.40625 C-48.96776801 116.72341211 -48.96776801 116.72341211 -45.0390625 118.40625 C-43.8840625 118.9425 -42.7290625 119.47875 -41.5390625 120.03125 C-35.53742885 122.21468015 -28.66584372 122.69448269 -22.59765625 120.5390625 C-20.50091532 119.51342966 -20.50091532 119.51342966 -18.66015625 118.37890625 C-17.0390625 117.40625 -17.0390625 117.40625 -14.0390625 116.40625 C-12.91971177 114.75994807 -12.91971177 114.75994807 -12.0390625 112.40625 C-11.5028125 111.21 -10.9665625 110.01375 -10.4140625 108.78125 C-8.38816664 103.12343721 -7.66945877 97.62793149 -10.0703125 91.98046875 C-14.85254002 84.07650938 -21.32533147 79.90286848 -30.1640625 77.59375 C-34.45737713 76.63386258 -38.66155125 76.03160875 -43.0390625 75.40625 C-43.0390625 67.15625 -43.0390625 58.90625 -43.0390625 50.40625 C-39.0790625 49.74625 -35.1190625 49.08625 -31.0390625 48.40625 C-24.98556221 45.68217487 -20.90582407 43.61756674 -18.0390625 37.40625 C-16.7534235 32.77964123 -16.3938751 28.90043887 -18.6015625 24.53125 C-21.70143836 20.55705018 -24.12016013 18.78442896 -29.1796875 18.12890625 C-35.78600275 17.8480255 -40.70823842 19.39326557 -45.7890625 23.78125 C-48.1093839 26.25321081 -48.1093839 26.25321081 -49.27856445 29.03979492 C-51.0390625 31.40625 -51.0390625 31.40625 -53.94995117 31.97387695 C-55.1072876 31.94769287 -56.26462402 31.92150879 -57.45703125 31.89453125 C-58.71064453 31.87841797 -59.96425781 31.86230469 -61.25585938 31.84570312 C-62.56619141 31.80380859 -63.87652344 31.76191406 -65.2265625 31.71875 C-66.56180779 31.69366661 -67.89709779 31.67085348 -69.23242188 31.65039062 C-72.50242957 31.59136522 -75.77018583 31.50906476 -79.0390625 31.40625 C-77.20570104 18.52733956 -73.10637558 8.14933647 -63.0390625 -0.59375 C-43.81433363 -14.34011371 -18.9673449 -14.82505119 0 0 Z " fill="#FCFEFE" transform="translate(176.0390625,197.59375)"/>
<path d="M0 0 C9.89221318 7.19433686 13.47516261 16.64134005 15.33764648 28.3828125 C16.0715355 34.82052692 16.12192454 41.25060607 16.12060547 47.72460938 C16.12495607 50.10100293 16.16133946 52.475498 16.19921875 54.8515625 C16.26005257 62.99424308 15.71294894 70.70969347 13.9765625 78.6796875 C13.82109955 79.39818878 13.6656366 80.11669006 13.50546265 80.85696411 C11.72663872 88.24022197 8.48657723 96.77532131 2 101.19140625 C-2.71084298 103.83205456 -6.88667717 105.01214458 -12.25 104 C-18.4166589 102.03365028 -22.82881208 98.46779142 -26.25 93 C-32.32381353 80.51271889 -32.6031024 66.69606816 -32.56567383 53.09008789 C-32.56251766 50.7008679 -32.58605607 48.31289597 -32.61132812 45.92382812 C-32.66567531 32.75536096 -32.41844669 16.98155971 -24.25 6 C-16.99456605 -0.79499295 -9.76188027 -3.00365547 0 0 Z " fill="#01AEEF" transform="translate(390.25,216)"/>
<path d="M0 0 C4.84767667 2.03229522 7.94969902 5.25034695 10.6484375 9.71875 C13.18500633 16.10645983 12.90644091 23.53185684 10.21875 29.8515625 C7.20637436 34.94776789 2.28099999 38.55997917 -3.28125 40.4140625 C-9.56771706 40.94681395 -14.13508848 40.23389373 -19.28125 36.4140625 C-25.08458049 30.27084063 -26.60629998 25.27200565 -26.49609375 16.9453125 C-25.85279367 9.36606793 -21.64616257 5.28413499 -16.15625 0.6015625 C-10.94542846 -1.55073335 -5.43191734 -1.39518425 0 0 Z " fill="#03AEEF" transform="translate(269.28125,279.5859375)"/>
</svg>
